<svg width="32" height="32" viewBox="0 0 32 32" fill="none" xmlns="http://www.w3.org/2000/svg">
<g clip-path="url(#clip0)">
<path d="M31.2436 18.2036C30.9164 18.1218 30.5892 18.2036 30.303 18.4081C29.2397 19.3078 28.0129 20.0439 26.6633 20.5346C25.3956 21.0253 24.0052 21.2707 22.533 21.2707C19.2205 21.2707 16.1943 19.9212 14.0269 17.7538C11.8595 15.5863 10.5099 12.5601 10.5099 9.24766C10.5099 7.85724 10.7553 6.50772 11.1643 5.28088C11.6141 3.97225 12.2684 2.7863 13.1272 1.76393C13.4952 1.31409 13.4135 0.659776 12.9636 0.291724C12.6774 0.0872502 12.3502 0.00546079 12.023 0.0872502C8.54699 1.02783 5.52078 3.11346 3.35337 5.8943C1.26774 8.63424 0 12.0285 0 15.7499C0 20.2074 1.79937 24.256 4.74379 27.2004C7.6882 30.1448 11.7368 31.9442 16.1943 31.9442C19.9566 31.9442 23.4327 30.6356 26.2135 28.4682C29.0352 26.2599 31.08 23.111 31.9388 19.5122C32.1432 18.8988 31.8161 18.3263 31.2436 18.2036ZM24.9867 26.7506C22.6148 28.6317 19.5886 29.7768 16.2761 29.7768C12.3911 29.7768 8.87415 28.1819 6.33868 25.6464C3.80321 23.111 2.20831 19.594 2.20831 15.709C2.20831 12.4783 3.27158 9.53392 5.11184 7.16203C6.37957 5.52624 7.97447 4.17672 9.81473 3.23614C9.61025 3.68598 9.40578 4.13582 9.2422 4.62656C8.71057 6.09877 8.4652 7.65277 8.4652 9.28856C8.4652 13.1736 10.0601 16.7314 12.5956 19.2669C15.131 21.8023 18.6889 23.3972 22.5739 23.3972C24.2915 23.3972 25.9272 23.111 27.4403 22.5384C27.972 22.334 28.5036 22.1295 28.9943 21.8841C28.0129 23.7653 26.6633 25.442 24.9867 26.7506Z" fill="white"/>
</g>
<defs>
<clipPath id="clip0">
<rect width="32" height="32" fill="white"/>
</clipPath>
</defs>
</svg>
